<?xml version="1.0" encoding="utf-8"?>
<!-- Generator: Adobe Illustrator 16.0.0, SVG Export Plug-In . SVG Version: 6.00 Build 0)  -->
<!DOCTYPE svg PUBLIC "-//W3C//DTD SVG 1.1//EN" "http://www.w3.org/Graphics/SVG/1.1/DTD/svg11.dtd">
<svg version="1.1" id="Layer" xmlns="http://www.w3.org/2000/svg" xmlns:xlink="http://www.w3.org/1999/xlink" x="0px" y="0px"
	 width="512px" height="512px" viewBox="0 0 512 512" enable-background="new 0 0 512 512" xml:space="preserve">
<g>
	<path opacity="0.2" fill="#CCCCCC" d="M447.4,319.4c-12.6-21-46.1-25.5-55.1-48.2c-5-12.5-0.5-26.7,6-38.5
		c13.9-25.4,37.7-48,38.3-76.7c0.4-19.7-11.7-39.1-30-48c-19.2-9.3-45.4-7.5-59,9c-14,17-39.1,24-60.8,23.6
		c-11.8-0.2-23.4-2.2-34.8-5.4c-13.2-0.6-26.3-2.9-39.3-5.3c-12.5-2.3-25-6.6-37.8-5.7c-10.3,0.7-20.7,1.4-30.7,3.8
		c-21.7,5.2-41,20.1-40.7,44.3c0.1,10.2,3.8,19.8,3.5,30c-0.1,3.7-0.5,7.6-1.2,11.3c3.1,19.4-4.1,40.7-14.2,58.6
		c-6.2,10.9-13.4,21.4-18.1,33.1c-4.7,11.6-6.7,24.9-2.1,36.5c4.6,11.5,15.1,20,26.4,25.9c22.9,11.9,49.7,14.9,75.7,16.3
		c57.6,3.1,115.4-0.2,173.1-3.5c21.3-1.2,42.8-2.5,63.7-6.7c11.6-2.4,23.6-6,31.9-14.2C452.7,349.2,454.9,332,447.4,319.4z"/>
	<ellipse opacity="0.4" fill="#CCCCCC" cx="118.9" cy="410.5" rx="58.7" ry="8.7"/>
	<g>
		<path fill-rule="evenodd" clip-rule="evenodd" fill="#5DD09C" d="M161.6,296.8c-55.6,0-101.1-45.5-101.4-101.4
			c-0.3-57.3,46.5-103.2,103.1-102.6c56,0.6,101.5,45.9,101.2,102.7C264.3,251.7,218.3,297.6,161.6,296.8z M245.3,224.7
			c-0.1-0.1-0.3-0.1-0.4-0.2c-0.8,1.8-1.5,3.6-2.4,5.3c-4.7,9-10.6,17.1-17.9,24.1c-10.7,10.2-23.1,17.4-37.3,21.4
			c-9.8,2.8-19.9,3.9-30.1,3.4c-7.6-0.4-15.1-1.8-22.3-4.1c-10.8-3.4-20.5-9-29.4-16c-6.4-5-11.6-11.3-16.5-17.8
			c-0.4-0.5-0.5-1-0.3-1.5c1-2.3,1.9-4.7,3.1-6.9c0.9-1.6,2-3.2,2.8-4.9c1.2-2.4,2.1-5.1,3.7-7.2c2.8-3.7,4.7-7.9,7.8-11.4
			c4.3-4.7,8-10,12.6-14.5c5.5-5.6,11.2-10.8,17.4-15.6c7.2-5.6,14.8-10.6,22.7-15c6.2-3.5,12.7-6.4,19.3-9
			c4.6-1.8,9.3-3.3,14.1-4.7c6.9-2,13.9-3.5,21.1-4.5c5.7-0.7,11.5-1.3,17.3-1.2c0.4,0,1,0.1,1.1-0.4c0.2-0.4-0.3-0.6-0.5-0.9
			c-5.1-6.2-11-11.6-17.6-16.1c-13.7-9.4-28.7-15-45.4-16c-9.1-0.5-18.1,0-27,2.2c-12.5,3.1-23.9,8.5-34.1,16.4
			c-4.8,3.7-9.2,8-13.2,12.6c-5.5,6.3-9.9,13.2-13.5,20.7c-3.7,7.8-5.4,16.2-6,24.8c-1,13.7,0.9,27,5.9,39.8
			c4.2,10.9,10.6,20.4,18.7,28.8c3.7,3.9,7.8,7.3,12.2,10.4c3.9,2.7,7.7,5.4,12.1,7.3c5.1,2.2,10.2,4.1,15.5,5.7
			c6.2,1.9,12.5,2.8,18.8,3.2c6.5,0.4,12.9-0.2,19.3-1.3c7.1-1.1,13.8-3.2,20.3-6c10.8-4.7,20.3-11.3,28.4-19.8
			c7.4-7.7,13.3-16.5,17.5-26.4C244.1,228,244.7,226.3,245.3,224.7z"/>
		<path fill-rule="evenodd" clip-rule="evenodd" fill="#58C29A" d="M245.3,224.7c-0.6,1.6-1.2,3.3-1.9,4.9
			c-4.2,9.9-10.1,18.7-17.5,26.4c-8.1,8.5-17.6,15-28.4,19.8c-6.5,2.8-13.2,4.9-20.3,6c-6.4,1-12.8,1.7-19.3,1.3
			c-6.4-0.4-12.6-1.4-18.8-3.2c-5.3-1.6-10.4-3.5-15.5-5.7c-4.4-1.9-8.2-4.6-12.1-7.3c-4.4-3.1-8.5-6.5-12.2-10.4
			c-8.1-8.4-14.5-17.9-18.7-28.8c-5-12.8-6.9-26.1-5.9-39.8c0.6-8.6,2.3-17,6-24.8c3.6-7.4,8-14.4,13.5-20.7
			c4-4.6,8.4-8.9,13.2-12.6c10.2-7.8,21.6-13.3,34.1-16.4c8.9-2.2,17.9-2.7,27-2.2c16.7,0.9,31.7,6.5,45.4,16
			c6.6,4.5,12.5,9.9,17.6,16.1c0.2,0.3,0.7,0.5,0.5,0.9c-0.2,0.5-0.7,0.4-1.1,0.4c-5.8-0.2-11.6,0.4-17.3,1.2
			c-7.1,0.9-14.2,2.4-21.1,4.5c-4.8,1.4-9.5,3-14.1,4.7c-6.6,2.5-13.1,5.5-19.3,9c-7.9,4.4-15.5,9.4-22.7,15
			c-6.2,4.8-11.9,10.1-17.4,15.6c-4.5,4.6-8.3,9.8-12.6,14.5c-3.2,3.5-5,7.8-7.8,11.4c-1.6,2-2.5,4.8-3.7,7.2
			c-0.8,1.7-1.9,3.2-2.8,4.9c-1.2,2.2-2.1,4.6-3.1,6.9c-0.2,0.6-0.1,1,0.3,1.5c4.9,6.5,10.1,12.7,16.5,17.8c8.9,7,18.6,12.6,29.4,16
			c7.2,2.3,14.6,3.7,22.3,4.1c10.3,0.5,20.3-0.5,30.1-3.4c14.2-4.1,26.6-11.3,37.3-21.4c7.3-7,13.2-15.1,17.9-24.1
			c0.9-1.7,1.6-3.6,2.4-5.3C245.1,224.6,245.2,224.6,245.3,224.7z"/>
		
			<text transform="matrix(1 9.300000e-004 -9.300000e-004 1 122.335 246.6987)" fill="#FFFFFF" font-family="'MyriadPro-Regular'" font-size="166.3142">$</text>
	</g>
	<g>
		<path fill="#E6E6E6" d="M335,344.3l-4.8-1.9l-3.3-22.7h-44.1l-3.6,22.6l-4.3,2c-0.5,0.2-0.7,0.8-0.5,1.3c0.2,0.3,0.5,0.5,0.9,0.5
			h59.3c0.6,0,1-0.4,1-1C335.6,344.8,335.3,344.5,335,344.3z"/>
		<path fill="#CCCCCC" d="M413.4,322.8H196.6c-2.4,0-4.3-1.8-4.3-4v-28.6h225.4v28.6C417.7,321,415.8,322.8,413.4,322.8z"/>
		<path fill="#3B3950" d="M417.9,303.7H192.1V181.3c0-2.7,2.3-4.8,5.2-4.8h215.4c2.9,0,5.2,2.2,5.2,4.8V303.7z"/>
		<path fill="#FFFFFF" d="M404.4,294.8H205.6c-2.2,0-4-1.7-4-3.7v-102c0-2.1,1.8-3.7,4-3.7h198.8c2.2,0,4,1.7,4,3.7v102
			C408.4,293.1,406.6,294.8,404.4,294.8z"/>
		<path fill="#CCCCCC" d="M402.5,346.4H210c-0.3,0-0.5-0.2-0.5-0.5s0.2-0.5,0.5-0.5h192.5c0.3,0,0.5,0.2,0.5,0.5
			S402.8,346.4,402.5,346.4z"/>
		<path fill="#3F3D56" d="M385.7,282.1H224.3c-0.3,0-0.5-0.2-0.5-0.5v-72.4c0-0.3,0.2-0.5,0.5-0.5c0.3,0,0.5,0.2,0.5,0.5v71.9h160.9
			c0.3,0,0.5,0.2,0.5,0.5C386.2,281.9,386,282.1,385.7,282.1z"/>
		<path fill="#5DD09C" d="M258.8,276.9h-14.7c-0.8,0-1.5-0.6-1.5-1.4v-18.9c0-0.8,0.7-1.4,1.5-1.4h14.7c0.8,0,1.5,0.6,1.5,1.4v18.9
			C260.3,276.3,259.6,276.9,258.8,276.9z"/>
		<path fill="#5DD09C" d="M285.6,276.9h-14.7c-0.8,0-1.5-0.6-1.5-1.4v-36.9c0-0.8,0.7-1.4,1.5-1.4h14.7c0.8,0,1.5,0.6,1.5,1.4v36.9
			C287.1,276.3,286.4,276.9,285.6,276.9z"/>
		<path fill="#5DD09C" d="M312.3,276.9h-14.7c-0.8,0-1.5-0.6-1.5-1.4v-18.9c0-0.8,0.7-1.4,1.5-1.4h14.7c0.8,0,1.5,0.6,1.5,1.4v18.9
			C313.8,276.3,313.2,276.9,312.3,276.9z"/>
		<path fill="#5DD09C" d="M339.1,276.9h-14.7c-0.8,0-1.5-0.6-1.5-1.3v-44.1c0-0.8,0.7-1.4,1.5-1.3h14.7c0.8,0,1.5,0.6,1.5,1.3v44.1
			C340.6,276.3,339.9,276.9,339.1,276.9z"/>
		<path fill="#5DD09C" d="M365.9,276.9h-14.7c-0.8,0-1.5-0.6-1.5-1.4v-56.8c0-0.8,0.7-1.4,1.5-1.4h14.7c0.8,0,1.5,0.6,1.5,1.4v56.8
			C367.4,276.3,366.7,276.9,365.9,276.9z"/>
		<path fill="#3F3D56" d="M251.4,243.8c1.7,0,3,1.3,3,2.8c0,1.6-1.4,2.8-3,2.8c-1.7,0-3-1.3-3-2.8
			C248.4,245.1,249.8,243.8,251.4,243.8z"/>
		<ellipse fill="#3F3D56" cx="278.2" cy="228.2" rx="3" ry="2.8"/>
		<ellipse fill="#3F3D56" cx="305" cy="246.7" rx="3" ry="2.8"/>
		<ellipse fill="#3F3D56" cx="331.8" cy="219.2" rx="3" ry="2.8"/>
		<path fill="#3F3D56" d="M358.6,206c1.7,0,3,1.3,3,2.8c0,1.6-1.4,2.8-3,2.8c-1.7,0-3-1.3-3-2.8C355.5,207.3,356.9,206,358.6,206z"
			/>
		<polygon fill="#3F3D56" points="305.1,247.3 278.2,228.5 251.7,247 251.1,246.3 278.2,227.3 304.9,246 331.5,218.8 331.6,218.8 
			358.4,208.7 358.7,209.6 332.1,219.6 		"/>
	</g>
	<g>
		<path fill-rule="evenodd" clip-rule="evenodd" fill="#59C29A" d="M304.4,374.8c-1.2-0.7-1.6-2-2.1-3.3c-2.1-5.8-1.4-11.6,0-17.4
			c2.8-11.5,8.8-21.4,15.9-30.8c2.6-3.4,5.3-6.6,8.2-9.7c0.9,0.5,1.9,1,2.9,1.3c5.1,1.2,10.3,1.4,15.5,0.7c0.9-0.1,1.5-0.1,1.9,1
			c2.2,5.4,6.4,8.3,12.2,9c0.6,2.1,2.1,3.8,3.1,5.7c4,7.7,7.2,15.7,7.9,24.4c0.5,6-0.8,11.5-5.5,15.7c-4.2,3.7-9.4,5.1-14.8,6
			c-7.4,1.3-14.9,1.3-22.4,1.2c-4.1,0-8.2-0.5-12.3-1.1C311.4,377,308,375.9,304.4,374.8z M339.2,324.9c-2.1-0.6-2.6,0.5-2.3,2.4
			c0.2,1.2-0.2,1.9-1.5,2.4c-3.4,1.3-5.5,3.8-5.7,7.6c-0.2,4,1.7,6.7,5.2,8.6c2.1,1.1,4.4,1.9,6.4,3.4c1.2,0.8,2.1,1.8,2.2,3.4
			c0.2,2.6-1.1,4.6-3.4,5.3c-2.8,0.8-5.1-0.2-6.4-3c-1.4-2.7-1.4-2.7-4.3-2.1c-0.3,0-0.5,0.1-0.7,0.2c-1.1,0.1-1.4,0.7-1.1,1.7
			c1.1,4,3.1,7.3,7.5,8.3c1.5,0.4,2.2,1.1,1.9,2.6c-0.3,1.8,0.3,2.6,2.3,2.1c0.3-0.1,0.6,0,1,0c1,0.1,1.4-0.3,1.2-1.3
			c-0.4-2,0.3-3.2,2.3-4.1c3.6-1.6,5.3-4.8,5.6-8.7c0.3-4.1-1.5-7.1-5.1-9.1c-2.4-1.4-4.9-2.6-7.4-4c-1.4-0.8-2-2.1-1.4-3.7
			c0.5-1.6,1.7-2.3,3.3-2.4c1.9-0.1,3.3,0.6,4.4,2.2c0.4,0.6,0.7,1.4,1.6,0.8c1.2-0.8,2.9-1,3.7-2.5c0.1-0.1-0.2-0.4-0.3-0.7
			c-1.2-2.1-2.7-3.9-5.1-4.5c-1.4-0.4-1.7-1-1.5-2.3C341.6,325.6,341.4,324.3,339.2,324.9z"/>
		<path fill-rule="evenodd" clip-rule="evenodd" fill="#179572" d="M304.4,374.8c3.5,1,7,2.2,10.6,2.7c4.1,0.6,8.2,1,12.3,1.1
			c7.5,0.1,15,0.2,22.4-1.2c5.3-1,10.6-2.3,14.8-6c4.7-4.2,6-9.7,5.5-15.7c-0.7-8.7-3.9-16.7-7.9-24.4c-1-1.9-2.5-3.6-3.1-5.7
			c1,0,2,0,3.1,0c1.8,2.8,3.6,5.6,5.4,8.5c4.5,7.4,7.9,15.2,9.4,23.7c0.7,3.8,0.9,7.7,0,11.5c-1.5,6.5-6.1,10-11.9,12.3
			c-5.1,2-10.6,2.6-16,3c-6.4,0.4-12.8,0.6-19.2,0c-6.9-0.6-13.8-1.3-20-4.7c-0.3-0.2-0.7-0.2-1.1-0.3c-0.5-1.1-1.7-1.4-2.5-2.2
			C305.5,376.6,304.5,376.1,304.4,374.8z"/>
		<path fill-rule="evenodd" clip-rule="evenodd" fill="#58C29A" d="M323.2,291.9c-1.2-3-1.2-3,2.1-4c10-3.1,19.9-2.9,29.8,0.6
			c0.6,0.2,1.4,0.3,1.6,1.2c-0.5,0.7-1.2,1.3-1.2,2.2c-0.2,0.2-0.5,0.4-0.6,0.7c-2.6,4.2-4.3,8.7-5.8,13.3c-0.6,1.9-1.7,3.8-1.3,5.9
			c-5.5,1.5-10.9,1.2-16.4,0.1c-0.8-4.1-2.2-8-3.8-11.9C326.2,297.2,325.2,294.3,323.2,291.9z"/>
		<path fill-rule="evenodd" clip-rule="evenodd" fill="#3B3950" d="M331.2,311.9c5.5,1.1,11,1.3,16.4-0.1c1-0.3,2.1-0.6,3.1-0.9
			c1.2,0.3,1.7,1,1.5,2.2c-1.7,1.6-1.7,1.7,0.4,2.7c0.4,0.2,0.8,0.3,1.2,0.4l0,0c0.2,0.3,0.6,0.4,0.9,0.4c2.1,0.7,4.1,0.4,6.1-0.3
			c1-0.4,2.1-0.5,2.5,0.8c0.5,1.3-0.4,1.9-1.6,2.3c-1.3,0.4-2.5,0.7-3.9,0.8c-1.2,0-2.4,0-3.7,0c1.5,1.4,3,1.9,4.8,2l0,0
			c0.2,0.2,0.4,0.2,0.6,0.2c0.6,0,1.3,0.1,1.9,0.1c1-0.1,1.8,0.2,2,1.3c0.2,1-0.3,1.7-1.3,1.9c-1,0-2,0-3.1,0
			c-5.7-0.7-9.9-3.6-12.2-9c-0.4-1-1-1.1-1.9-1c-5.2,0.6-10.4,0.5-15.5-0.7c-1.1-0.3-2-0.8-2.9-1.3c-0.6-1.4-0.2-2.3,1.2-2.7
			C328.9,311.3,330,311.9,331.2,311.9z"/>
		<path fill-rule="evenodd" clip-rule="evenodd" fill="#179572" d="M350.7,311c-1,0.3-2.1,0.6-3.1,0.9c-0.4-2.2,0.7-4,1.3-5.9
			c1.5-4.6,3.2-9.2,5.8-13.3c0.2-0.3,0.4-0.5,0.6-0.7c1-0.1,1.9,0.3,2.7,0.7c1.4,0.7,2.7,1.6,4.1,2.4c0.4,0.6,0.9,1.3,1.3,1.9
			c-0.3,1-1.1,1.5-1.8,2.1C357.5,302.5,354,306.6,350.7,311z"/>
		<path fill-rule="evenodd" clip-rule="evenodd" fill="#179572" d="M331.2,311.9c-1.2,0-2.3-0.6-3.4-1c-1.1-2.1-2.7-3.8-4.5-5.3
			c-1.7-2.4-3.7-4.5-6.2-6.2c-0.1-0.2-0.2-0.5-0.4-0.6c-2.3-2-2.4-2.1,0-4c1.9-1.5,3.8-2.8,6.4-2.9c2.1,2.4,3,5.4,4.2,8.2
			C329,303.9,330.4,307.8,331.2,311.9z"/>
		<path fill-rule="evenodd" clip-rule="evenodd" fill="#269972" d="M359,322.2c-1.7,0-3.3-0.5-4.8-2c1.4,0,2.5,0,3.7,0
			C358.3,320.9,358.9,321.4,359,322.2z"/>
		<path fill-rule="evenodd" clip-rule="evenodd" fill="#2F976F" d="M353.8,316.3c-0.4-0.1-0.8-0.2-1.2-0.4c-2.1-1-2.1-1.1-0.4-2.7
			C352.1,314.5,353.9,314.9,353.8,316.3z"/>
		<path fill-rule="evenodd" clip-rule="evenodd" fill="#2F976F" d="M354.7,316.6c-0.4,0.1-0.7,0-0.9-0.4
			C354.2,316.2,354.5,316.3,354.7,316.6z"/>
		<path fill-rule="evenodd" clip-rule="evenodd" fill="#269972" d="M359.7,322.3c-0.2,0.1-0.5,0.1-0.6-0.2
			C359.3,322.1,359.5,322.1,359.7,322.3z"/>
		<path fill-rule="evenodd" clip-rule="evenodd" fill="#F4F8F7" d="M339.2,324.9c2.2-0.5,2.4,0.7,2.2,2.3c-0.2,1.3,0.1,1.9,1.5,2.3
			c2.4,0.6,4,2.4,5.1,4.5c0.1,0.2,0.4,0.5,0.3,0.7c-0.8,1.5-2.5,1.7-3.7,2.5c-0.9,0.6-1.2-0.2-1.6-0.8c-1.1-1.5-2.5-2.3-4.4-2.2
			c-1.6,0.1-2.8,0.8-3.3,2.4c-0.5,1.6,0,2.9,1.4,3.7c2.4,1.4,4.9,2.6,7.4,4c3.5,2,5.3,5,5.1,9.1c-0.2,3.9-2,7.1-5.6,8.7
			c-2,0.9-2.7,2.1-2.3,4.1c0.2,1-0.1,1.4-1.2,1.3c-0.3,0-0.7-0.1-1,0c-1.9,0.5-2.6-0.3-2.3-2.1c0.3-1.6-0.4-2.3-1.9-2.6
			c-4.4-1-6.3-4.3-7.5-8.3c-0.3-1,0-1.6,1.1-1.7c0.2,0,0.5-0.1,0.7-0.2c2.9-0.6,2.9-0.6,4.3,2.1c1.4,2.7,3.7,3.8,6.4,3
			c2.4-0.7,3.6-2.6,3.4-5.3c-0.1-1.6-1.1-2.5-2.2-3.4c-2-1.4-4.3-2.2-6.4-3.4c-3.4-1.8-5.4-4.5-5.2-8.6c0.2-3.8,2.3-6.2,5.7-7.6
			c1.3-0.5,1.7-1.2,1.5-2.4C336.6,325.4,337.1,324.3,339.2,324.9z"/>
	</g>
	<g>
		<path fill-rule="evenodd" clip-rule="evenodd" fill="#58C29A" stroke="#275945" stroke-miterlimit="10" d="M442.6,369.7
			c0,1.4-1.3,2.6-2.8,2.6h-38.5c-1.6,0-2.8-1.2-2.8-2.6l0,0c0-1.4,1.3-2.6,2.8-2.6h38.5C441.4,367.1,442.6,368.3,442.6,369.7
			L442.6,369.7z"/>
		<path fill-rule="evenodd" clip-rule="evenodd" fill="#58C29A" stroke="#275945" stroke-miterlimit="10" d="M442.6,374.9
			c0,1.4-1.3,2.6-2.8,2.6h-38.5c-1.6,0-2.8-1.2-2.8-2.6l0,0c0-1.4,1.3-2.6,2.8-2.6h38.5C441.4,372.3,442.6,373.5,442.6,374.9
			L442.6,374.9z"/>
		<path fill-rule="evenodd" clip-rule="evenodd" fill="#58C29A" stroke="#275945" stroke-miterlimit="10" d="M442.6,380.1
			c0,1.4-1.3,2.6-2.8,2.6h-38.5c-1.6,0-2.8-1.2-2.8-2.6l0,0c0-1.4,1.3-2.6,2.8-2.6h38.5C441.4,377.5,442.6,378.7,442.6,380.1
			L442.6,380.1z"/>
	</g>
	<g>
		<path fill-rule="evenodd" clip-rule="evenodd" fill="#58C29A" stroke="#275945" stroke-miterlimit="10" d="M423.1,365.4
			c0,1.9-1.3,3.5-2.8,3.5h-38.5c-1.6,0-2.8-1.5-2.8-3.5l0,0c0-1.9,1.3-3.5,2.8-3.5h38.5C421.9,361.9,423.1,363.5,423.1,365.4
			L423.1,365.4z"/>
		<path fill-rule="evenodd" clip-rule="evenodd" fill="#58C29A" stroke="#275945" stroke-miterlimit="10" d="M423.1,372.3
			c0,1.9-1.3,3.5-2.8,3.5h-38.5c-1.6,0-2.8-1.5-2.8-3.5l0,0c0-1.9,1.3-3.5,2.8-3.5h38.5C421.9,368.9,423.1,370.4,423.1,372.3
			L423.1,372.3z"/>
		<path fill-rule="evenodd" clip-rule="evenodd" fill="#58C29A" stroke="#275945" stroke-miterlimit="10" d="M423.1,379.2
			c0,1.9-1.3,3.5-2.8,3.5h-38.5c-1.6,0-2.8-1.5-2.8-3.5l0,0c0-1.9,1.3-3.5,2.8-3.5h38.5C421.9,375.8,423.1,377.3,423.1,379.2
			L423.1,379.2z"/>
	</g>
	<g>
		<path fill-rule="evenodd" clip-rule="evenodd" fill="#58C29A" stroke="#275945" stroke-miterlimit="10" d="M423.1,345
			c0,1.9-1.3,3.5-2.8,3.5h-38.5c-1.6,0-2.8-1.5-2.8-3.5l0,0c0-1.9,1.3-3.5,2.8-3.5h38.5C421.9,341.6,423.1,343.1,423.1,345
			L423.1,345z"/>
		<path fill-rule="evenodd" clip-rule="evenodd" fill="#58C29A" stroke="#275945" stroke-miterlimit="10" d="M423.1,352
			c0,1.9-1.3,3.5-2.8,3.5h-38.5c-1.6,0-2.8-1.5-2.8-3.5l0,0c0-1.9,1.3-3.5,2.8-3.5h38.5C421.9,348.5,423.1,350,423.1,352L423.1,352z
			"/>
		<path fill-rule="evenodd" clip-rule="evenodd" fill="#58C29A" stroke="#275945" stroke-miterlimit="10" d="M423.1,358.9
			c0,1.9-1.3,3.5-2.8,3.5h-38.5c-1.6,0-2.8-1.5-2.8-3.5l0,0c0-1.9,1.3-3.5,2.8-3.5h38.5C421.9,355.4,423.1,357,423.1,358.9
			L423.1,358.9z"/>
	</g>
	<g>
		<path fill-rule="evenodd" clip-rule="evenodd" fill="#59C29A" d="M273.8,405c-1.2-0.7-1.6-2-2.1-3.3c-2.1-5.8-1.4-11.6,0-17.4
			c2.8-11.5,8.8-21.4,15.9-30.8c2.6-3.4,5.3-6.6,8.2-9.7c0.9,0.5,1.9,1,2.9,1.3c5.1,1.2,10.3,1.4,15.5,0.7c0.9-0.1,1.5-0.1,1.9,1
			c2.2,5.4,6.4,8.3,12.2,9c0.6,2.1,2.1,3.8,3.1,5.7c4,7.7,7.2,15.7,7.9,24.4c0.5,6-0.8,11.5-5.5,15.7c-4.2,3.7-9.4,5.1-14.8,6
			c-7.4,1.3-14.9,1.3-22.4,1.2c-4.1,0-8.2-0.5-12.3-1.1C280.8,407.2,277.4,406,273.8,405z M308.6,355c-2.1-0.6-2.6,0.5-2.3,2.4
			c0.2,1.2-0.2,1.9-1.5,2.4c-3.4,1.3-5.5,3.8-5.7,7.6c-0.2,4,1.7,6.7,5.2,8.6c2.1,1.1,4.4,1.9,6.4,3.4c1.2,0.8,2.1,1.8,2.2,3.4
			c0.2,2.6-1.1,4.6-3.4,5.3c-2.8,0.8-5.1-0.2-6.4-3c-1.4-2.7-1.4-2.7-4.3-2.1c-0.3,0-0.5,0.1-0.7,0.2c-1.1,0.1-1.4,0.7-1.1,1.7
			c1.1,4,3.1,7.3,7.5,8.3c1.5,0.4,2.2,1.1,1.9,2.6c-0.3,1.8,0.3,2.6,2.3,2.1c0.3-0.1,0.6,0,1,0c1,0.1,1.4-0.3,1.2-1.3
			c-0.4-2,0.2-3.2,2.3-4.1c3.6-1.6,5.3-4.8,5.6-8.7c0.3-4.1-1.5-7.1-5.1-9.1c-2.4-1.4-4.9-2.6-7.4-4c-1.4-0.8-2-2.1-1.4-3.7
			c0.5-1.6,1.7-2.3,3.3-2.4c1.9-0.1,3.3,0.6,4.4,2.2c0.4,0.6,0.7,1.4,1.6,0.8c1.2-0.8,2.9-1,3.7-2.5c0.1-0.1-0.2-0.4-0.3-0.7
			c-1.2-2.1-2.7-3.9-5.1-4.5c-1.4-0.4-1.7-1-1.5-2.3C311,355.7,310.8,354.5,308.6,355z"/>
		<path fill-rule="evenodd" clip-rule="evenodd" fill="#179572" d="M273.8,405c3.5,1,7,2.2,10.6,2.7c4.1,0.6,8.2,1,12.3,1.1
			c7.5,0.1,15,0.2,22.4-1.2c5.3-1,10.6-2.3,14.8-6c4.7-4.2,6-9.7,5.5-15.7c-0.7-8.7-3.9-16.7-7.9-24.4c-1-1.9-2.5-3.6-3.1-5.7
			c1,0,2,0,3.1,0c1.8,2.8,3.6,5.6,5.4,8.5c4.5,7.4,7.9,15.2,9.4,23.7c0.7,3.8,0.9,7.7,0,11.5c-1.5,6.5-6.1,10-11.9,12.3
			c-5.1,2-10.6,2.6-16,3c-6.4,0.4-12.8,0.6-19.2,0c-6.9-0.6-13.8-1.3-20-4.7c-0.3-0.2-0.7-0.2-1.1-0.3c-0.5-1.1-1.7-1.4-2.5-2.2
			C274.9,406.8,273.9,406.2,273.8,405z"/>
		<path fill-rule="evenodd" clip-rule="evenodd" fill="#58C29A" d="M292.6,322c-1.2-3-1.2-3,2.1-4c10-3.1,19.9-2.9,29.8,0.6
			c0.6,0.2,1.4,0.3,1.6,1.2c-0.5,0.7-1.2,1.3-1.2,2.2c-0.2,0.2-0.5,0.4-0.6,0.7c-2.6,4.2-4.3,8.7-5.8,13.3c-0.6,1.9-1.7,3.8-1.3,5.9
			c-5.5,1.5-10.9,1.2-16.4,0.1c-0.8-4.1-2.2-8-3.8-11.9C295.6,327.4,294.7,324.4,292.6,322z"/>
		<path fill-rule="evenodd" clip-rule="evenodd" fill="#3B3950" d="M300.6,342.1c5.5,1.1,11,1.3,16.4-0.1c1-0.3,2.1-0.6,3.1-0.9
			c1.2,0.3,1.7,1,1.5,2.2c-1.7,1.6-1.7,1.7,0.4,2.7c0.4,0.2,0.8,0.3,1.2,0.4l0,0c0.2,0.3,0.6,0.4,0.9,0.4c2.1,0.7,4.1,0.4,6.1-0.3
			c1-0.4,2.1-0.5,2.5,0.8c0.5,1.3-0.4,1.9-1.6,2.3c-1.3,0.4-2.5,0.7-3.9,0.8c-1.2,0-2.4,0-3.7,0c1.5,1.4,3,1.9,4.8,2l0,0
			c0.2,0.2,0.4,0.2,0.6,0.2c0.6,0,1.3,0.1,1.9,0.1c1-0.1,1.8,0.2,2,1.3c0.2,1-0.3,1.7-1.3,1.9c-1,0-2,0-3.1,0
			c-5.7-0.7-9.9-3.6-12.2-9c-0.4-1-1-1.1-1.9-1c-5.2,0.6-10.4,0.5-15.5-0.7c-1.1-0.3-2-0.8-2.9-1.3c-0.6-1.4-0.2-2.3,1.2-2.7
			C298.3,341.4,299.4,342.1,300.6,342.1z"/>
		<path fill-rule="evenodd" clip-rule="evenodd" fill="#179572" d="M320.1,341.1c-1,0.3-2.1,0.6-3.1,0.9c-0.4-2.2,0.7-4,1.3-5.9
			c1.5-4.6,3.2-9.2,5.8-13.3c0.2-0.3,0.4-0.5,0.6-0.7c1-0.1,1.9,0.3,2.7,0.7c1.4,0.7,2.7,1.6,4.1,2.4c0.4,0.6,0.9,1.3,1.3,1.9
			c-0.3,1-1.1,1.5-1.8,2.1C326.9,332.6,323.4,336.8,320.1,341.1z"/>
		<path fill-rule="evenodd" clip-rule="evenodd" fill="#179572" d="M300.6,342.1c-1.2,0-2.3-0.6-3.4-1c-1.1-2.1-2.7-3.8-4.5-5.3
			c-1.7-2.4-3.7-4.5-6.2-6.2c-0.1-0.2-0.2-0.5-0.4-0.6c-2.3-2-2.4-2.1,0-4c1.9-1.5,3.8-2.8,6.4-2.9c2.1,2.4,3,5.4,4.2,8.2
			C298.4,334.1,299.8,338,300.6,342.1z"/>
		<path fill-rule="evenodd" clip-rule="evenodd" fill="#269972" d="M328.4,352.3c-1.7,0-3.3-0.5-4.8-2c1.4,0,2.5,0,3.7,0
			C327.7,351,328.4,351.5,328.4,352.3z"/>
		<path fill-rule="evenodd" clip-rule="evenodd" fill="#2F976F" d="M323.2,346.4c-0.4-0.1-0.8-0.2-1.2-0.4c-2.1-1-2.1-1.1-0.4-2.7
			C321.5,344.7,323.3,345,323.2,346.4z"/>
		<path fill-rule="evenodd" clip-rule="evenodd" fill="#2F976F" d="M324.1,346.8c-0.4,0.1-0.7,0-0.9-0.4
			C323.6,346.4,323.9,346.4,324.1,346.8z"/>
		<path fill-rule="evenodd" clip-rule="evenodd" fill="#269972" d="M329.1,352.5c-0.2,0.1-0.5,0.1-0.6-0.2
			C328.7,352.3,328.9,352.2,329.1,352.5z"/>
		<path fill-rule="evenodd" clip-rule="evenodd" fill="#F4F8F7" d="M308.6,355c2.2-0.5,2.4,0.7,2.2,2.3c-0.2,1.3,0.1,1.9,1.5,2.3
			c2.4,0.6,4,2.4,5.1,4.5c0.1,0.2,0.4,0.5,0.3,0.7c-0.8,1.5-2.5,1.7-3.7,2.5c-0.9,0.6-1.2-0.2-1.6-0.8c-1.1-1.5-2.5-2.3-4.4-2.2
			c-1.6,0.1-2.8,0.8-3.3,2.4c-0.5,1.6,0,2.9,1.4,3.7c2.4,1.4,4.9,2.6,7.4,4c3.5,2,5.3,5,5.1,9.1c-0.2,3.9-2,7.1-5.6,8.7
			c-2,0.9-2.7,2.1-2.3,4.1c0.2,1-0.2,1.4-1.2,1.3c-0.3,0-0.7-0.1-1,0c-1.9,0.5-2.6-0.3-2.3-2.1c0.3-1.6-0.4-2.3-1.9-2.6
			c-4.4-1-6.3-4.3-7.5-8.3c-0.3-1,0-1.6,1.1-1.7c0.3,0,0.5-0.1,0.7-0.2c2.9-0.6,2.9-0.6,4.3,2.1c1.4,2.7,3.7,3.8,6.4,3
			c2.4-0.7,3.6-2.6,3.4-5.3c-0.1-1.6-1.1-2.5-2.2-3.4c-2-1.4-4.3-2.2-6.4-3.4c-3.4-1.8-5.4-4.5-5.2-8.6c0.2-3.8,2.3-6.2,5.7-7.6
			c1.3-0.5,1.7-1.2,1.5-2.4C306,355.5,306.5,354.4,308.6,355z"/>
	</g>
	<circle fill="#FFB8B8" cx="122" cy="251.1" r="12"/>
	<polygon fill="#FFB8B8" points="128.2,371.6 136.5,374.5 126.4,395.4 120.7,393.5 	"/>
	<path fill="#2F2E41" d="M135.5,404.4L135.5,404.4L135.5,404.4l-17.8-6l0,0l2.3-6.9l0,0l10.9,3.7
		C134.8,396.5,136.8,400.6,135.5,404.4z"/>
	<polygon fill="#FFB8B8" points="109.1,382.3 117.9,382.7 113.9,405.6 107.9,405.3 	"/>
	<path fill="#2F2E41" d="M125.2,411.8L125.2,411.8L125.2,411.8l-18.8-0.9l0,0l0.4-7.3l0,0l11.5,0.6
		C122.3,404.3,125.4,407.8,125.2,411.8z"/>
	<path fill="#FFB8B8" d="M149.6,329.6c2.3-1.5,2.8-4.6,1.3-6.9l-4.1-15.3l-8.8-2.2l5.7,16.5c-0.2,0.2-0.4,0.4-0.6,0.6
		c-1.8,2-1.6,5.1,0.4,6.9C145.2,330.7,147.7,330.9,149.6,329.6z"/>
	<path fill="#2F2E41" d="M108.5,398.4C108.5,398.4,108.4,398.4,108.5,398.4c-1.3,0-2.2-1.1-2.2-2.3l2.2-71.6l30.1-2.4l4,30.4
		c0,0.3,0,0.6-0.1,0.9l-9,33.8c-0.3,1.1-1.3,1.7-2.4,1.6l-8.2-0.9c-0.1,0-0.2,0-0.3-0.1c-1.2-0.3-1.8-1.5-1.5-2.7l8.5-30.1
		l-4.5-15.3l-6.3,55.9c-0.1,1-0.9,1.8-2,1.9l-8.1,0.9C108.6,398.4,108.6,398.4,108.5,398.4L108.5,398.4z"/>
	<path fill="#58C29A" d="M107.1,326.6l-0.1-0.1l0.8-7.5l4.7-51.6l0.2,0c0.1,0,12.4-0.1,17-0.3l0.2,0l11.4,58.4l-0.2,0.1
		c-0.7,0.2-12.1,4.1-22.2,4.1C114.3,329.7,110,328.9,107.1,326.6z"/>
	<path fill="#2F2E41" d="M128.7,272.9l-0.2-4.7c-0.1-0.3,0-0.7,0.2-1c0.4-0.6,1.1-0.7,1.7-0.3l1.1,0c0.3,0,0.5,0,0.7,0.1
		c1.3,0.4,2,1.7,1.6,3l0,0l3.7,2.6c1.8,1.2,3,3.2,3.2,5.4l3.6,43.9l-7.1,2.9L128.7,272.9z"/>
	<path fill="#2F2E41" d="M138.4,299.4l-2.5-19.8c-0.3-2.1,1-4.1,3-4.7l0,0c0.3-0.1,0.6-0.2,1-0.2c2.4-0.2,4.5,1.6,4.7,4L147,297
		l3,19.4l-9.3,0.4L138.4,299.4z"/>
	<path fill="#2F2E41" d="M104.7,322.3l2.8-23l-5.8-24.6c-0.5-2.1,0.5-4.3,2.4-5.3l4.2-2.2c1.9-1,4.2-1.2,6.3-0.6l0,0
		c0.3-0.4,0.8-0.5,1.3-0.3c0.4,0.1,0.7,0.5,0.8,0.9l3,11l3.5,17.5c7,16,2.8,29.5,2.8,29.6l-0.1,0.2L104.7,322.3z"/>
	<path fill="#FFB8B8" d="M124.3,311.6c0.4-2.7-1.5-5.2-4.2-5.6l-14.1-7.3l-4.6,2.2l13.1,9.7c0,0.3,0,0.6,0,0.9
		c0.3,2.7,2.7,4.6,5.4,4.4C122.1,315.6,123.9,313.9,124.3,311.6z"/>
	<path fill="#2F2E41" d="M93.1,297.2c-0.7-0.6-1-1.6-0.7-2.4l7.2-21.1c0.9-2.7,3.8-4.4,6.6-3.8l0,0c0.1,0,0.3,0.1,0.4,0.1
		c3.1,0.9,4.9,4,4,7.1l-5.3,19l10.9,7.2l-4.4,8.2L93.1,297.2z"/>
	<path fill="#2F2E41" d="M120.8,254.1c0.6-1.2-0.7-2.6-2-2.5c-1.3,0.2-2.2,1.4-2.5,2.7c-0.2,1.3,0.1,2.6,0.3,3.9
		c0.2,0.8,0.2,1.7,0,2.6c-0.3,0.8-1.1,1.5-1.9,1.4c-1-0.1-1.5-1.1-1.9-2c-1.6-3.5-3.2-7.1-3.6-10.9c-0.4-3.8,0.7-8,3.6-10.5
		c1.9-1.7,4.5-2.5,7.1-2.7c2.6-0.2,5.1,0.1,7.7,0.4l-0.1-2.2c0,0,0,0,0,0c2.2-0.4,4.2,1.1,4.6,3.3l-0.4-3.8c1.5,1,2.3,2.7,2.2,4.4
		l0.3-2.6c0.9,2.1,1.8,4.2,1.6,6.4c-0.1,2.2-1.5,4.6-3.8,4.9c-2,0.3-4.1-0.9-5.8,0.1c-1.3,0.7-1.6,2.3-2.1,3.7
		c-0.5,1.4-1.6,2.8-3,2.6L120.8,254.1z"/>
</g>
</svg>
